<mxfile host="app.diagrams.net" modified="2021-12-01T10:01:03.902Z" agent="5.0 (Windows NT 10.0; Win64; x64) AppleWebKit/537.36 (KHTML, like Gecko) Chrome/96.0.4664.45 Safari/537.36" etag="ixQVzEix2L4j_NpXMDti" version="15.8.8" type="github">
  <diagram id="CE47TKtt_vQOP2ZYbdLO" name="Page-1">
    <mxGraphModel dx="1422" dy="794" grid="1" gridSize="10" guides="1" tooltips="1" connect="1" arrows="1" fold="1" page="1" pageScale="1" pageWidth="850" pageHeight="1100" math="0" shadow="0">
      <root>
        <mxCell id="0" />
        <mxCell id="1" parent="0" />
        <mxCell id="flVNt5cVwo-TJWQ_ufYW-1" value="&lt;div style=&quot;font-size: 15px&quot;&gt;&lt;font style=&quot;font-size: 15px&quot;&gt;state: &quot;pending&quot;&lt;/font&gt;&lt;/div&gt;&lt;div style=&quot;font-size: 15px&quot;&gt;&lt;font style=&quot;font-size: 15px&quot;&gt;result: undefined&lt;/font&gt;&lt;/div&gt;" style="rounded=0;whiteSpace=wrap;html=1;fillColor=#fff2cc;strokeColor=#d6b656;align=center;" vertex="1" parent="1">
          <mxGeometry x="80" y="310" width="150" height="70" as="geometry" />
        </mxCell>
        <mxCell id="flVNt5cVwo-TJWQ_ufYW-2" value="&lt;div style=&quot;font-size: 15px&quot;&gt;&lt;font style=&quot;font-size: 15px&quot;&gt;state: &quot;fulfilled&quot;&lt;/font&gt;&lt;/div&gt;&lt;div style=&quot;font-size: 15px&quot;&gt;&lt;font style=&quot;font-size: 15px&quot;&gt;result: &quot;done&quot;&lt;/font&gt;&lt;/div&gt;" style="rounded=0;whiteSpace=wrap;html=1;fillColor=#d5e8d4;strokeColor=#82b366;align=center;" vertex="1" parent="1">
          <mxGeometry x="380" y="170" width="150" height="70" as="geometry" />
        </mxCell>
        <mxCell id="flVNt5cVwo-TJWQ_ufYW-3" value="&lt;div style=&quot;font-size: 15px&quot;&gt;&lt;font style=&quot;font-size: 15px&quot;&gt;state: &quot;rejected&quot;&lt;/font&gt;&lt;/div&gt;&lt;div style=&quot;font-size: 15px&quot;&gt;&lt;font style=&quot;font-size: 15px&quot;&gt;result: &quot;error&quot;&lt;/font&gt;&lt;/div&gt;" style="rounded=0;whiteSpace=wrap;html=1;fillColor=#f8cecc;strokeColor=#b85450;align=center;" vertex="1" parent="1">
          <mxGeometry x="360" y="310" width="150" height="70" as="geometry" />
        </mxCell>
        <mxCell id="flVNt5cVwo-TJWQ_ufYW-4" value="" style="endArrow=classic;html=1;rounded=0;fontSize=15;entryX=0;entryY=0.5;entryDx=0;entryDy=0;" edge="1" parent="1" target="flVNt5cVwo-TJWQ_ufYW-2">
          <mxGeometry width="50" height="50" relative="1" as="geometry">
            <mxPoint x="240" y="205" as="sourcePoint" />
            <mxPoint x="320" y="140" as="targetPoint" />
          </mxGeometry>
        </mxCell>
        <mxCell id="flVNt5cVwo-TJWQ_ufYW-5" value="" style="endArrow=classic;html=1;rounded=0;fontSize=15;entryX=0;entryY=0.5;entryDx=0;entryDy=0;" edge="1" parent="1" target="flVNt5cVwo-TJWQ_ufYW-3">
          <mxGeometry width="50" height="50" relative="1" as="geometry">
            <mxPoint x="240" y="345" as="sourcePoint" />
            <mxPoint x="320" y="340" as="targetPoint" />
          </mxGeometry>
        </mxCell>
        <mxCell id="flVNt5cVwo-TJWQ_ufYW-6" value="&lt;font color=&quot;#9ac7bf&quot; style=&quot;font-size: 17px&quot;&gt;resolve(&quot;done&quot;)&lt;/font&gt;" style="text;html=1;align=center;verticalAlign=middle;resizable=0;points=[];autosize=1;strokeColor=none;fillColor=none;fontSize=15;rotation=0;" vertex="1" parent="1">
          <mxGeometry x="245" y="180" width="130" height="20" as="geometry" />
        </mxCell>
        <mxCell id="flVNt5cVwo-TJWQ_ufYW-7" value="&lt;font style=&quot;font-size: 17px&quot; color=&quot;#ea6b66&quot;&gt;reject(&quot;&lt;/font&gt;&lt;span style=&quot;color: rgb(234 , 107 , 102) ; font-size: 17px&quot;&gt;error&quot;&lt;/span&gt;&lt;font style=&quot;font-size: 17px&quot; color=&quot;#ea6b66&quot;&gt;)&lt;/font&gt;" style="text;html=1;align=center;verticalAlign=middle;resizable=0;points=[];autosize=1;strokeColor=none;fillColor=none;fontSize=15;rotation=0;" vertex="1" parent="1">
          <mxGeometry x="235" y="350" width="120" height="20" as="geometry" />
        </mxCell>
      </root>
    </mxGraphModel>
  </diagram>
</mxfile>
